<?xml version="1.0" encoding="utf-8"?>
<!-- Generator: Adobe Illustrator 15.1.0, SVG Export Plug-In . SVG Version: 6.00 Build 0)  -->
<!DOCTYPE svg PUBLIC "-//W3C//DTD SVG 1.1//EN" "http://www.w3.org/Graphics/SVG/1.1/DTD/svg11.dtd">
<svg version="1.1" xmlns="http://www.w3.org/2000/svg" xmlns:xlink="http://www.w3.org/1999/xlink" x="0px" y="0px" width="1140px"
	 height="750px" viewBox="0 0 1140 750" enable-background="new 0 0 1140 750" xml:space="preserve">
<g id="Layer_1">
</g>
<g id="Layer_2">
	<path fill="#F05F8C" stroke="#000000" stroke-miterlimit="10" d="M550.667,289.011c62.079,0.229,132.361-4.523,192.792-18.828
		c42.298-10.012,115.729-33.452,138.222-73.769c-7.146,9.009-5.381,18.388-6.206,29.2c-1.933,25.36-7.615,45.607-22.659,66.764
		c-49.17,69.153-140.89,117.172-225.705,113.643c-75.637-3.146-148.286-49.942-129.563-130.149
		c11.572,14.274,71.656,17.042,71.683,16.514"/>
	<path fill="#F05F8C" stroke="#000000" stroke-miterlimit="10" d="M512,219c-3.482-28.297,29.702-58.531,53.811-69.449
		c15.739-7.127,76.695-19.658,88.044-2.907c-33.394-11.296-51.889-62.645-96.743-41.051C531.641,117.856,522.656,165.636,522,191"/>
	<path fill="#F05F8C" stroke="#000000" stroke-miterlimit="10" d="M704,145c-1.982-37.074,0.371-83.612,45.274-85.269
		c30.634-1.13,88.497,20.517,86.377,59.013c-21.222-5.86-52.334,1.38-73.686,6.176c-22.169,4.98-41.119,20.161-61.82,24.51
		c1.994,3.657,2.212,0.438,3.854-0.431"/>
</g>
</svg>
